<svg xmlns="http://www.w3.org/2000/svg" version="1.1" xmlns:xlink="http://www.w3.org/1999/xlink" viewBox="0 0 13.309063892435683 8.749688084687657"><g transform="matrix(1,0,0,1,0.8953083134053426,5.890467271282315)"><rect width="13.309063892435683" height="13.309063892435683" x="-0.8953083134053426" y="-8.170155175156328" fill="#002540"></rect><g clip-path="url(#SvgjsClipPath1002)"><g clip-path="url(#SvgjsClipPath1000603bdf0d-339f-45d6-a4d5-6784bab9e7e7)"><path d=" M 6.698888418948801 -4.906231691050198 L 2.045028121680656 -0.2535570906730671 L 4.602576315618842 -0.2535570906730671 C 4.643091658397618 -0.2531320772286767 4.683321865983534 -0.2603735145941508 4.721146004721203 -0.27489963471150425 C 4.757277973709067 -0.28930459808760123 4.789993652474725 -0.3111150505980351 4.817187452894128 -0.3389272668267873 L 9.4722334470533 -4.9927875640949315 L 6.9158709500061555 -4.9927875640949315 C 6.875355607227365 -4.993212577539323 6.835125399641449 -4.985971140173848 6.79730126090378 -4.971445020056494 C 6.760249288294066 -4.956921136393726 6.726704828067762 -4.934692879617264 6.698888418948801 -4.906231691050227 Z" fill="#2fb5e8" transform="matrix(1,0,0,1,0,0)" fill-rule="evenodd"></path></g><g clip-path="url(#SvgjsClipPath1000603bdf0d-339f-45d6-a4d5-6784bab9e7e7)"><path d=" M 7.13641057173655 -0.3412986606088282 L 8.260451224427044 -1.4653393132993227 L 7.273951411095307 -2.4518391266310595 L 5.930556833565432 -1.1084445491011699 L 6.69651702516676 -0.341298660608814 C 6.755492567170886 -0.2836909072404916 6.834614322420103 -0.25136158789133134 6.9170566468971835 -0.2511856968910129 C 6.999138107258842 -0.25141912321031423 7.077869549913901 -0.2837628510037531 7.136410571736536 -0.3412986606088424 Z" fill="#004883" transform="matrix(1,0,0,1,0,0)" fill-rule="evenodd"></path></g><g clip-path="url(#SvgjsClipPath1000603bdf0d-339f-45d6-a4d5-6784bab9e7e7)"><path d=" M 9.612145680194113 -4.90504599415917 L 8.488105027503632 -3.7810053414686906 L 10.740929120448717 -1.5281812485235924 L 10.740929120448717 -4.085729442461778 C 10.741241609695031 -4.126235254778239 10.7340039117732 -4.166444687677313 10.719586576410293 -4.204299131564139 C 10.704446949709453 -4.240328436568081 10.682277210221734 -4.272978416540903 10.654373247403983 -4.300340579737077 L 10.048482136090863 -4.907417387941211 C 9.989792562025475 -4.96545941083072 9.910484810895067 -4.997864728496893 9.82794251436044 -4.997530351659013 C 9.746681765602263 -4.9961175466635215 9.669210641575782 -4.962915636366474 9.612145680194113 -4.90504599415917 Z" fill="#1471bc" transform="matrix(1,0,0,1,0,0)" fill-rule="evenodd"></path></g><g clip-path="url(#SvgjsClipPath1000603bdf0d-339f-45d6-a4d5-6784bab9e7e7)"><path d=" M 10.655558944294997 -1.3847119247097264 L 9.531518291604502 -2.509938274291248 L 7.278694198659403 -0.25711418134615016 L 9.835056695706577 -0.25711418134615016 C 9.875550780999996 -0.25693767191109096 9.915735515443108 -0.26417092411085985 9.95362638480895 -0.2784567253845731 C 9.989600783533822 -0.2931600841888651 10.022259194576039 -0.31493235821700427 10.049667832981875 -0.3424843574998562 L 10.655558944294997 -0.9495611657040035 C 10.713966070767883 -1.0076186468932753 10.746823496511007 -1.0865618126397179 10.746857604903825 -1.1689150905433991 C 10.74601315742791 -1.2500600761647624 10.713207957376929 -1.3275996399216328 10.655558944295011 -1.3847119247097122 Z" fill="#1471bc" transform="matrix(1,0,0,1,0,0)" fill-rule="evenodd"></path></g><g clip-path="url(#SvgjsClipPath1000603bdf0d-339f-45d6-a4d5-6784bab9e7e7)"><path d=" M 4.382036693888434 -4.90504599415917 L 3.2579960411979534 -3.7810053414686906 L 4.24449585452969 -2.7945055281369537 L 5.589076128950594 -4.137900105666829 L 4.821930240458237 -4.905045994159185 C 4.76324066639285 -4.963088017048694 4.683932915262442 -4.995493334714867 4.601390618727814 -4.995158957876987 C 4.519182217458256 -4.9955704280605975 4.440214646093468 -4.963129696040447 4.38203669388842 -4.90504599415917 Z" fill="#004883" transform="matrix(1,0,0,1,0,0)" fill-rule="evenodd"></path></g><g clip-path="url(#SvgjsClipPath1000603bdf0d-339f-45d6-a4d5-6784bab9e7e7)"><path d=" M 1.9063015854308714 -0.3412986606088282 L 3.030342238121366 -1.4653393132993227 L 0.7775181451762672 -3.7181634062444067 L 0.7775181451762672 -1.159429515415194 C 0.7782187351167644 -1.118911568085183 0.7858377949062592 -1.078811253403639 0.8000463861057318 -1.0408598263128188 C 0.8150428050705856 -1.0047530075417455 0.8372308795402891 -0.9720760251409102 0.8652597151120424 -0.9448183781399084 L 1.471150826425163 -0.3377415699357602 C 1.5299847872918027 -0.27991844672433075 1.6091983721719423 -0.2475516055905187 1.691690448155586 -0.24762860621795824 C 1.7725971462034738 -0.250155144750968 1.8494352816208954 -0.2836922314801207 1.9063015854308856 -0.3412986606088282 Z" fill="#1471bc" transform="matrix(1,0,0,1,0,0)" fill-rule="evenodd"></path></g><g clip-path="url(#SvgjsClipPath1000603bdf0d-339f-45d6-a4d5-6784bab9e7e7)"><path d=" M 0.8628883213300016 -3.861632730058301 L 1.9869289740204819 -2.737592077367807 L 4.23975306696558 -4.990416170312905 L 1.6857619637004628 -4.990416170312905 C 1.6452466209216867 -4.990841183757296 1.605016413335771 -4.983599746391822 1.567192274598102 -4.969073626274468 C 1.5305643113247571 -4.954402781998769 1.4974364446962316 -4.9321828714552325 1.469965129534164 -4.9038602972681575 L 0.8640740182210432 -4.297969185955037 C 0.8056668917481574 -4.239911704765765 0.7728094660050319 -4.160968539019323 0.7727753576122142 -4.078615261115642 C 0.772993329628211 -3.9972282885095702 0.8053862362280089 -3.9192295791969087 0.8628883213300158 -3.8616327300582727 Z" fill="#1471bc" transform="matrix(1,0,0,1,0,0)" fill-rule="evenodd"></path></g></g><g><path d=" M 0.5685 1.068 L 0.5685 0.10050000000000003 L 0.9705 0.10050000000000003 L 0.9705 0.018000000000000016 L 0.03 0.018000000000000016 L 0.03 0.10050000000000003 L 0.432 0.10050000000000003 L 0.432 1.068 L 0.5685 1.068 M 0.9689772949218749 0.543 Q 0.9689772949218749 0.627 1.001227294921875 0.7222500000000001 Q 1.033477294921875 0.8175000000000001 1.1024772949218749 0.8985000000000001 Q 1.171477294921875 0.9795 1.2779772949218748 1.03275 Q 1.3844772949218749 1.086 1.532977294921875 1.086 Q 1.633477294921875 1.086 1.715227294921875 1.06125 Q 1.796977294921875 1.0365 1.862227294921875 0.9945 Q 1.927477294921875 0.9525 1.975477294921875 0.89775 Q 2.023477294921875 0.8430000000000001 2.054227294921875 0.7822500000000001 Q 2.084977294921875 0.7215 2.100727294921875 0.66 Q 2.116477294921875 0.5985 2.116477294921875 0.543 Q 2.116477294921875 0.4590000000000001 2.0819772949218747 0.36375 Q 2.047477294921875 0.26850000000000007 1.975477294921875 0.1875 Q 1.903477294921875 0.10650000000000004 1.7932272949218748 0.05325000000000002 Q 1.682977294921875 0 1.532977294921875 0 Q 1.3844772949218749 0 1.2779772949218748 0.05249999999999999 Q 1.171477294921875 0.1050000000000001 1.1024772949218749 0.18525000000000003 Q 1.033477294921875 0.26550000000000007 1.001227294921875 0.36150000000000004 Q 0.9689772949218749 0.4575 0.9689772949218749 0.543 M 1.115977294921875 0.543 Q 1.115977294921875 0.43800000000000006 1.148227294921875 0.35025000000000006 Q 1.180477294921875 0.26250000000000007 1.236727294921875 0.1995 Q 1.292977294921875 0.13650000000000007 1.369477294921875 0.10125000000000006 Q 1.445977294921875 0.06600000000000006 1.5359772949218748 0.06600000000000006 Q 1.624477294921875 0.06600000000000006 1.703227294921875 0.10125000000000006 Q 1.7819772949218748 0.13650000000000007 1.8412272949218749 0.1995 Q 1.900477294921875 0.26250000000000007 1.9349772949218749 0.35025000000000006 Q 1.969477294921875 0.43800000000000006 1.969477294921875 0.543 Q 1.969477294921875 0.6480000000000001 1.9349772949218749 0.7357500000000001 Q 1.900477294921875 0.8235000000000001 1.8412272949218749 0.8865000000000001 Q 1.7819772949218748 0.9495 1.703227294921875 0.98475 Q 1.624477294921875 1.02 1.5359772949218748 1.02 Q 1.445977294921875 1.02 1.369477294921875 0.98475 Q 1.292977294921875 0.9495 1.236727294921875 0.8865000000000001 Q 1.180477294921875 0.8235000000000001 1.148227294921875 0.7357500000000001 Q 1.115977294921875 0.6480000000000001 1.115977294921875 0.543 M 2.471962646484375 0.018000000000000016 L 2.369962646484375 0.018000000000000016 L 2.369962646484375 1.068 L 2.435962646484375 1.068 L 2.435962646484375 0.21150000000000002 L 2.4419626464843747 0.21150000000000002 L 2.905462646484375 1.086 L 2.932462646484375 1.086 L 3.406462646484375 0.21750000000000003 L 3.412462646484375 0.21750000000000003 L 3.412462646484375 1.068 L 3.548962646484375 1.068 L 3.548962646484375 0.018000000000000016 L 3.445462646484375 0.018000000000000016 L 2.9594626464843747 0.9195000000000001 L 2.953462646484375 0.9195000000000001 L 2.471962646484375 0.018000000000000016 M 3.847464111328125 1.0035 Q 3.847464111328125 0.9705 3.871464111328125 0.9465000000000001 Q 3.895464111328125 0.9225000000000001 3.928464111328125 0.9225000000000001 Q 3.961464111328125 0.9225000000000001 3.985464111328125 0.9465000000000001 Q 4.009464111328125 0.9705 4.009464111328125 1.0035 Q 4.009464111328125 1.0365 3.985464111328125 1.0605 Q 3.961464111328125 1.0845 3.928464111328125 1.0845 Q 3.895464111328125 1.0845 3.871464111328125 1.0605 Q 3.847464111328125 1.0365 3.847464111328125 1.0035 M 4.32297216796875 1.068 L 4.32297216796875 0.018000000000000016 L 4.66797216796875 0.018000000000000016 Q 4.79247216796875 0.018000000000000016 4.89597216796875 0.05774999999999997 Q 4.99947216796875 0.09750000000000003 5.07372216796875 0.16725 Q 5.147972167968749 0.237 5.18922216796875 0.3330000000000001 Q 5.23047216796875 0.42900000000000005 5.23047216796875 0.54 Q 5.23047216796875 0.6555 5.18772216796875 0.7522500000000001 Q 5.14497216796875 0.8490000000000001 5.07072216796875 0.9195000000000001 Q 4.99647216796875 0.9900000000000001 4.89747216796875 1.0290000000000001 Q 4.798472167968749 1.068 4.68597216796875 1.068 L 4.32297216796875 1.068 M 4.45947216796875 1.002 L 4.62447216796875 1.002 Q 4.74747216796875 1.002 4.83372216796875 0.9607500000000001 Q 4.91997216796875 0.9195000000000001 4.97547216796875 0.8535 Q 5.03097216796875 0.7875000000000001 5.056472167968749 0.7057500000000001 Q 5.0819721679687495 0.6240000000000001 5.0819721679687495 0.543 Q 5.0819721679687495 0.45300000000000007 5.05197216796875 0.36975 Q 5.02197216796875 0.2865000000000001 4.9642221679687495 0.22275 Q 4.90647216796875 0.15900000000000003 4.820972167968749 0.12150000000000005 Q 4.73547216796875 0.08400000000000007 4.62447216796875 0.08400000000000007 L 4.45947216796875 0.08400000000000007 L 4.45947216796875 1.002 M 5.453994140624999 0.018000000000000016 L 5.453994140624999 1.068 L 6.131994140624999 1.068 L 6.131994140624999 0.9855 L 5.590494140624999 0.9855 L 5.590494140624999 0.546 L 6.055494140625 0.546 L 6.055494140625 0.4770000000000001 L 5.590494140624999 0.4770000000000001 L 5.590494140624999 0.10050000000000003 L 6.131994140624999 0.10050000000000003 L 6.131994140624999 0.018000000000000016 L 5.453994140624999 0.018000000000000016 M 6.220478759765625 0.018000000000000016 L 6.659978759765624 1.068 L 6.749978759765625 1.068 L 7.175978759765624 0.018000000000000016 L 7.097978759765625 0.018000000000000016 L 6.748478759765625 0.8820000000000001 L 6.742478759765625 0.8820000000000001 L 6.3824787597656245 0.018000000000000016 L 6.220478759765625 0.018000000000000016 M 7.788010986328125 1.068 L 7.788010986328125 0.10050000000000003 L 8.190010986328124 0.10050000000000003 L 8.190010986328124 0.018000000000000016 L 7.249510986328125 0.018000000000000016 L 7.249510986328125 0.10050000000000003 L 7.651510986328125 0.10050000000000003 L 7.651510986328125 1.068 L 7.788010986328125 1.068 M 8.398499267578124 0.018000000000000016 L 8.398499267578124 1.068 L 9.076499267578125 1.068 L 9.076499267578125 0.9855 L 8.534999267578124 0.9855 L 8.534999267578124 0.546 L 8.999999267578124 0.546 L 8.999999267578124 0.4770000000000001 L 8.534999267578124 0.4770000000000001 L 8.534999267578124 0.10050000000000003 L 9.076499267578125 0.10050000000000003 L 9.076499267578125 0.018000000000000016 L 8.398499267578124 0.018000000000000016 M 10.183483886718749 0.8745 Q 10.03048388671875 1.0185 9.82048388671875 1.0185 Q 9.70348388671875 1.0185 9.613483886718749 0.9780000000000001 Q 9.523483886718749 0.9375 9.46348388671875 0.8700000000000001 Q 9.40348388671875 0.8025 9.37273388671875 0.7140000000000001 Q 9.341983886718749 0.6255000000000001 9.341983886718749 0.5295000000000001 Q 9.341983886718749 0.4275000000000001 9.37423388671875 0.34275 Q 9.40648388671875 0.258 9.46498388671875 0.1965 Q 9.523483886718749 0.135 9.60373388671875 0.10050000000000003 Q 9.68398388671875 0.06600000000000006 9.77848388671875 0.06600000000000006 Q 9.84298388671875 0.06600000000000006 9.896233886718749 0.08100000000000007 Q 9.949483886718749 0.09600000000000009 9.990733886718749 0.12 Q 10.03198388671875 0.14400000000000002 10.05823388671875 0.17475000000000007 Q 10.084483886718749 0.20550000000000002 10.09498388671875 0.237 L 10.20598388671875 0.237 Q 10.183483886718749 0.18600000000000005 10.14823388671875 0.14250000000000007 Q 10.11298388671875 0.09900000000000009 10.06048388671875 0.06750000000000012 Q 10.00798388671875 0.03600000000000003 9.93748388671875 0.018000000000000016 Q 9.86698388671875 0 9.77698388671875 0 Q 9.64648388671875 0 9.53923388671875 0.03750000000000009 Q 9.431983886718749 0.07500000000000007 9.35548388671875 0.14475000000000005 Q 9.27898388671875 0.21450000000000002 9.23698388671875 0.3127500000000001 Q 9.194983886718749 0.41100000000000003 9.194983886718749 0.5325000000000001 Q 9.194983886718749 0.6375000000000001 9.22873388671875 0.7372500000000001 Q 9.26248388671875 0.8370000000000001 9.332983886718749 0.91425 Q 9.40348388671875 0.9915 9.51298388671875 1.03875 Q 9.622483886718749 1.086 9.77398388671875 1.086 Q 9.86998388671875 1.086 9.945733886718749 1.068 Q 10.02148388671875 1.05 10.07773388671875 1.0237500000000002 Q 10.133983886718749 0.9975 10.17148388671875 0.9675 Q 10.20898388671875 0.9375 10.228483886718749 0.915 L 10.183483886718749 0.8745 M 10.573442138671874 0.546 L 11.201942138671875 0.546 L 11.201942138671875 1.068 L 11.338442138671875 1.068 L 11.338442138671875 0.018000000000000016 L 11.201942138671875 0.018000000000000016 L 11.201942138671875 0.4770000000000001 L 10.573442138671874 0.4770000000000001 L 10.573442138671874 0.018000000000000016 L 10.436942138671874 0.018000000000000016 L 10.436942138671874 1.068 L 10.573442138671874 1.068 L 10.573442138671874 0.546" fill="#ffffff" fill-rule="nonzero"></path></g><g><path d=" M 3.9792833862304673 1.9459124999999997 Q 3.939908386230467 1.9279124999999997 3.917408386230467 1.8956624999999998 Q 3.894908386230467 1.8634124999999997 3.893408386230467 1.8236624999999997 L 3.9489083862304675 1.8236624999999997 Q 3.952658386230467 1.8619124999999999 3.9826583862304674 1.8907874999999998 Q 4.012658386230467 1.9196624999999998 4.070408386230468 1.9196624999999998 Q 4.123658386230467 1.9196624999999998 4.154783386230467 1.8922874999999997 Q 4.185908386230468 1.8649124999999998 4.185908386230468 1.8229124999999997 Q 4.185908386230468 1.7891624999999998 4.168658386230467 1.7685374999999997 Q 4.151408386230467 1.7479124999999998 4.125908386230467 1.7377874999999998 Q 4.100408386230467 1.7276624999999997 4.055408386230467 1.7156624999999996 Q 4.002908386230468 1.7014124999999998 3.9721583862304675 1.6879124999999997 Q 3.941408386230467 1.6744124999999999 3.9196583862304673 1.6459124999999997 Q 3.8979083862304673 1.6174124999999997 3.8979083862304673 1.5686624999999998 Q 3.8979083862304673 1.5281624999999996 3.9189083862304672 1.4962874999999998 Q 3.939908386230467 1.4644124999999997 3.9781583862304672 1.4464124999999997 Q 4.016408386230467 1.4284124999999999 4.0659083862304675 1.4284124999999999 Q 4.138658386230468 1.4284124999999999 4.1832833862304675 1.4640374999999997 Q 4.227908386230467 1.4996624999999997 4.234658386230468 1.5559124999999998 L 4.177658386230467 1.5559124999999998 Q 4.172408386230467 1.5236624999999997 4.142408386230468 1.4985374999999999 Q 4.1124083862304674 1.4734124999999998 4.061408386230467 1.4734124999999998 Q 4.014158386230467 1.4734124999999998 3.9826583862304674 1.4985374999999999 Q 3.9511583862304676 1.5236624999999997 3.9511583862304676 1.5671624999999998 Q 3.9511583862304676 1.6001624999999997 3.9684083862304673 1.6204124999999998 Q 3.9856583862304675 1.6406624999999997 4.011533386230467 1.6511624999999999 Q 4.037408386230467 1.6616624999999998 4.081658386230467 1.6736624999999998 Q 4.132658386230467 1.6879124999999997 4.164158386230468 1.7017874999999998 Q 4.195658386230467 1.7156624999999996 4.217408386230467 1.7441624999999998 Q 4.239158386230467 1.7726624999999998 4.239158386230467 1.8206624999999996 Q 4.239158386230467 1.8574124999999997 4.219658386230467 1.8904124999999998 Q 4.200158386230467 1.9234124999999997 4.1619083862304675 1.9436624999999998 Q 4.123658386230467 1.9639124999999997 4.070408386230468 1.9639124999999997 Q 4.0186583862304674 1.9639124999999997 3.9792833862304673 1.9459124999999997 M 4.445799499511717 1.9297874999999998 Q 4.386549499511718 1.8956624999999998 4.352424499511717 1.8345374999999997 Q 4.318299499511717 1.7734124999999998 4.318299499511717 1.6961624999999998 Q 4.318299499511717 1.6189124999999998 4.352424499511717 1.5577874999999999 Q 4.386549499511718 1.4966624999999998 4.445799499511717 1.4625374999999998 Q 4.505049499511717 1.4284124999999999 4.577799499511717 1.4284124999999999 Q 4.651299499511717 1.4284124999999999 4.710549499511718 1.4625374999999998 Q 4.769799499511717 1.4966624999999998 4.803549499511718 1.5577874999999999 Q 4.837299499511717 1.6189124999999998 4.837299499511717 1.6961624999999998 Q 4.837299499511717 1.7734124999999998 4.803549499511718 1.8345374999999997 Q 4.769799499511717 1.8956624999999998 4.710549499511718 1.9297874999999998 Q 4.651299499511717 1.9639124999999997 4.577799499511717 1.9639124999999997 Q 4.505049499511717 1.9639124999999997 4.445799499511717 1.9297874999999998 M 4.6827994995117175 1.8911624999999996 Q 4.7292994995117175 1.8641624999999997 4.756299499511718 1.8135374999999998 Q 4.783299499511718 1.7629124999999997 4.783299499511718 1.6961624999999998 Q 4.783299499511718 1.6294124999999997 4.756299499511718 1.5791624999999998 Q 4.7292994995117175 1.5289124999999997 4.6827994995117175 1.5019124999999998 Q 4.6362994995117175 1.4749124999999998 4.577799499511717 1.4749124999999998 Q 4.5192994995117175 1.4749124999999998 4.4727994995117175 1.5019124999999998 Q 4.4262994995117175 1.5289124999999997 4.399299499511717 1.5791624999999998 Q 4.372299499511717 1.6294124999999997 4.372299499511717 1.6961624999999998 Q 4.372299499511717 1.7629124999999997 4.399299499511717 1.8135374999999998 Q 4.4262994995117175 1.8641624999999997 4.4727994995117175 1.8911624999999996 Q 4.5192994995117175 1.9181624999999998 4.577799499511717 1.9181624999999998 Q 4.6362994995117175 1.9181624999999998 4.6827994995117175 1.8911624999999996 M 5.21869317626953 1.4344124999999996 L 5.21869317626953 1.4779124999999997 L 4.98769317626953 1.4779124999999997 L 4.98769317626953 1.6736624999999998 L 5.18269317626953 1.6736624999999998 L 5.18269317626953 1.7171624999999997 L 4.98769317626953 1.7171624999999997 L 4.98769317626953 1.9586624999999998 L 4.93519317626953 1.9586624999999998 L 4.93519317626953 1.4344124999999996 L 5.21869317626953 1.4344124999999996 M 5.613553894042967 1.4344124999999996 L 5.613553894042967 1.4779124999999997 L 5.468053894042968 1.4779124999999997 L 5.468053894042968 1.9586624999999998 L 5.415553894042968 1.9586624999999998 L 5.415553894042968 1.4779124999999997 L 5.2693038940429675 1.4779124999999997 L 5.2693038940429675 1.4344124999999996 L 5.613553894042967 1.4344124999999996 M 6.334693542480467 1.4344124999999996 L 6.186193542480468 1.9586624999999998 L 6.1276935424804675 1.9586624999999998 L 5.995693542480468 1.5116624999999997 L 5.860693542480468 1.9586624999999998 L 5.803693542480468 1.9594124999999998 L 5.6581935424804675 1.4344124999999996 L 5.714443542480468 1.4344124999999996 L 5.834443542480468 1.8941624999999997 L 5.968693542480468 1.4344124999999996 L 6.027193542480467 1.4344124999999996 L 6.157693542480468 1.8941624999999997 L 6.278443542480468 1.4344124999999996 L 6.334693542480467 1.4344124999999996 M 6.72058135986328 1.8341624999999997 L 6.4820813598632805 1.8341624999999997 L 6.4363313598632805 1.9586624999999998 L 6.38083135986328 1.9586624999999998 L 6.57208135986328 1.4411625 L 6.63133135986328 1.4411625 L 6.82183135986328 1.9586624999999998 L 6.766331359863281 1.9586624999999998 L 6.72058135986328 1.8341624999999997 M 6.70483135986328 1.7906624999999998 L 6.601331359863281 1.5071624999999997 L 6.49783135986328 1.7906624999999998 L 6.70483135986328 1.7906624999999998 M 7.186689514160156 1.9586624999999998 L 7.056939514160155 1.7396624999999997 L 6.960189514160155 1.7396624999999997 L 6.960189514160155 1.9586624999999998 L 6.907689514160155 1.9586624999999998 L 6.907689514160155 1.4344124999999996 L 7.0651895141601555 1.4344124999999996 Q 7.152939514160155 1.4344124999999996 7.198314514160155 1.4764124999999997 Q 7.243689514160155 1.5184124999999997 7.243689514160155 1.5866624999999996 Q 7.243689514160155 1.6436624999999998 7.211064514160155 1.6837874999999998 Q 7.178439514160155 1.7239124999999997 7.114689514160156 1.7359124999999997 L 7.249689514160155 1.9586624999999998 L 7.186689514160156 1.9586624999999998 M 6.960189514160155 1.6969124999999998 L 7.0659395141601555 1.6969124999999998 Q 7.127439514160155 1.6969124999999998 7.1585645141601555 1.6669124999999998 Q 7.189689514160155 1.6369124999999998 7.189689514160155 1.5866624999999996 Q 7.189689514160155 1.5349124999999997 7.1596895141601555 1.5067874999999997 Q 7.129689514160155 1.4786624999999998 7.0651895141601555 1.4786624999999998 L 6.960189514160155 1.4786624999999998 L 6.960189514160155 1.6969124999999998 M 7.402295837402343 1.4771624999999997 L 7.402295837402343 1.6729124999999998 L 7.601045837402343 1.6729124999999998 L 7.601045837402343 1.7164124999999997 L 7.402295837402343 1.7164124999999997 L 7.402295837402343 1.9151624999999997 L 7.623545837402343 1.9151624999999997 L 7.623545837402343 1.9586624999999998 L 7.349795837402342 1.9586624999999998 L 7.349795837402342 1.4336624999999996 L 7.623545837402343 1.4336624999999996 L 7.623545837402343 1.4771624999999997 L 7.402295837402343 1.4771624999999997" fill="#dceac6" fill-rule="nonzero"></path></g></g><defs><clipPath id="SvgjsClipPath1002"><path d=" M 0.7715896607211725 -4.995158957876972 h 9.975267944182653 v 4.745158957876972 h -9.975267944182653 Z"></path></clipPath><clipPath id="SvgjsClipPath1000603bdf0d-339f-45d6-a4d5-6784bab9e7e7"><path d=" M 0.7715896607211725 -4.995158957876972 L 10.746857604903825 -4.995158957876972 L 10.746857604903825 -0.2500000000000009 L 0.7715896607211725 -0.2500000000000009 Z"></path></clipPath></defs></svg>